ISO-10303-21;
HEADER;
/* Generated by software containing ST-Developer
 * from STEP Tools, Inc. (www.steptools.com) 
 */

FILE_DESCRIPTION(
/* description */ (''),
/* implementation_level */ '2;1');

FILE_NAME(
/* name */ 'center piece 3.5mm.step',
/* time_stamp */ '2026-10-01T16:15:55+02:00',
/* author */ (''),
/* organization */ (''),
/* preprocessor_version */ 'ST-DEVELOPER v20.2',
/* originating_system */ 'Autodesk Translation Framework v15.15.0.0',
/* authorisation */ '');

FILE_SCHEMA (('AUTOMOTIVE_DESIGN { 1 0 10303 214 3 1 1 }'));
ENDSEC;

DATA;
#10=MECHANICAL_DESIGN_GEOMETRIC_PRESENTATION_REPRESENTATION('',(#13),#320);
#11=SHAPE_REPRESENTATION_RELATIONSHIP('SRR','None',#327,#12);
#12=ADVANCED_BREP_SHAPE_REPRESENTATION('',(#14),#319);
#13=STYLED_ITEM('',(#336),#14);
#14=MANIFOLD_SOLID_BREP('Body1',#180);
#15=LINE('',#290,#22);
#16=LINE('',#294,#23);
#17=LINE('',#308,#24);
#18=LINE('',#310,#25);
#19=LINE('',#312,#26);
#20=LINE('',#314,#27);
#21=LINE('',#316,#28);
#22=VECTOR('',#237,2.1);
#23=VECTOR('',#242,16.3);
#24=VECTOR('',#259,2.1);
#25=VECTOR('',#262,2.1);
#26=VECTOR('',#265,2.1);
#27=VECTOR('',#268,2.1);
#28=VECTOR('',#271,2.1);
#29=CYLINDRICAL_SURFACE('',#202,2.1);
#30=CYLINDRICAL_SURFACE('',#204,16.3);
#31=CYLINDRICAL_SURFACE('',#212,2.1);
#32=CYLINDRICAL_SURFACE('',#213,2.1);
#33=CYLINDRICAL_SURFACE('',#214,2.1);
#34=CYLINDRICAL_SURFACE('',#215,2.1);
#35=CYLINDRICAL_SURFACE('',#216,2.1);
#36=FACE_BOUND('',#58,.T.);
#37=FACE_BOUND('',#59,.T.);
#38=FACE_BOUND('',#60,.T.);
#39=FACE_BOUND('',#61,.T.);
#40=FACE_BOUND('',#62,.T.);
#41=FACE_BOUND('',#63,.T.);
#42=FACE_BOUND('',#67,.T.);
#43=FACE_BOUND('',#68,.T.);
#44=FACE_BOUND('',#69,.T.);
#45=FACE_BOUND('',#70,.T.);
#46=FACE_BOUND('',#71,.T.);
#47=FACE_BOUND('',#72,.T.);
#48=FACE_OUTER_BOUND('',#57,.T.);
#49=FACE_OUTER_BOUND('',#64,.T.);
#50=FACE_OUTER_BOUND('',#65,.T.);
#51=FACE_OUTER_BOUND('',#66,.T.);
#52=FACE_OUTER_BOUND('',#73,.T.);
#53=FACE_OUTER_BOUND('',#74,.T.);
#54=FACE_OUTER_BOUND('',#75,.T.);
#55=FACE_OUTER_BOUND('',#76,.T.);
#56=FACE_OUTER_BOUND('',#77,.T.);
#57=EDGE_LOOP('',(#127));
#58=EDGE_LOOP('',(#128));
#59=EDGE_LOOP('',(#129));
#60=EDGE_LOOP('',(#130));
#61=EDGE_LOOP('',(#131));
#62=EDGE_LOOP('',(#132));
#63=EDGE_LOOP('',(#133));
#64=EDGE_LOOP('',(#134,#135,#136,#137));
#65=EDGE_LOOP('',(#138,#139,#140,#141));
#66=EDGE_LOOP('',(#142));
#67=EDGE_LOOP('',(#143));
#68=EDGE_LOOP('',(#144));
#69=EDGE_LOOP('',(#145));
#70=EDGE_LOOP('',(#146));
#71=EDGE_LOOP('',(#147));
#72=EDGE_LOOP('',(#148));
#73=EDGE_LOOP('',(#149,#150,#151,#152));
#74=EDGE_LOOP('',(#153,#154,#155,#156));
#75=EDGE_LOOP('',(#157,#158,#159,#160));
#76=EDGE_LOOP('',(#161,#162,#163,#164));
#77=EDGE_LOOP('',(#165,#166,#167,#168));
#78=CIRCLE('',#195,16.3);
#79=CIRCLE('',#196,2.1);
#80=CIRCLE('',#197,2.1);
#81=CIRCLE('',#198,2.1);
#82=CIRCLE('',#199,2.1);
#83=CIRCLE('',#200,2.1);
#84=CIRCLE('',#201,2.1);
#85=CIRCLE('',#203,2.1);
#86=CIRCLE('',#205,16.3);
#87=CIRCLE('',#207,2.1);
#88=CIRCLE('',#208,2.1);
#89=CIRCLE('',#209,2.1);
#90=CIRCLE('',#210,2.1);
#91=CIRCLE('',#211,2.1);
#92=VERTEX_POINT('',#274);
#93=VERTEX_POINT('',#276);
#94=VERTEX_POINT('',#278);
#95=VERTEX_POINT('',#280);
#96=VERTEX_POINT('',#282);
#97=VERTEX_POINT('',#284);
#98=VERTEX_POINT('',#286);
#99=VERTEX_POINT('',#289);
#100=VERTEX_POINT('',#293);
#101=VERTEX_POINT('',#297);
#102=VERTEX_POINT('',#299);
#103=VERTEX_POINT('',#301);
#104=VERTEX_POINT('',#303);
#105=VERTEX_POINT('',#305);
#106=EDGE_CURVE('',#92,#92,#78,.T.);
#107=EDGE_CURVE('',#93,#93,#79,.T.);
#108=EDGE_CURVE('',#94,#94,#80,.T.);
#109=EDGE_CURVE('',#95,#95,#81,.T.);
#110=EDGE_CURVE('',#96,#96,#82,.T.);
#111=EDGE_CURVE('',#97,#97,#83,.T.);
#112=EDGE_CURVE('',#98,#98,#84,.T.);
#113=EDGE_CURVE('',#98,#99,#15,.T.);
#114=EDGE_CURVE('',#99,#99,#85,.T.);
#115=EDGE_CURVE('',#92,#100,#16,.T.);
#116=EDGE_CURVE('',#100,#100,#86,.T.);
#117=EDGE_CURVE('',#101,#101,#87,.T.);
#118=EDGE_CURVE('',#102,#102,#88,.T.);
#119=EDGE_CURVE('',#103,#103,#89,.T.);
#120=EDGE_CURVE('',#104,#104,#90,.T.);
#121=EDGE_CURVE('',#105,#105,#91,.T.);
#122=EDGE_CURVE('',#97,#105,#17,.T.);
#123=EDGE_CURVE('',#96,#104,#18,.T.);
#124=EDGE_CURVE('',#95,#103,#19,.T.);
#125=EDGE_CURVE('',#94,#102,#20,.T.);
#126=EDGE_CURVE('',#93,#101,#21,.T.);
#127=ORIENTED_EDGE('',*,*,#106,.T.);
#128=ORIENTED_EDGE('',*,*,#107,.T.);
#129=ORIENTED_EDGE('',*,*,#108,.T.);
#130=ORIENTED_EDGE('',*,*,#109,.T.);
#131=ORIENTED_EDGE('',*,*,#110,.T.);
#132=ORIENTED_EDGE('',*,*,#111,.T.);
#133=ORIENTED_EDGE('',*,*,#112,.T.);
#134=ORIENTED_EDGE('',*,*,#112,.F.);
#135=ORIENTED_EDGE('',*,*,#113,.T.);
#136=ORIENTED_EDGE('',*,*,#114,.T.);
#137=ORIENTED_EDGE('',*,*,#113,.F.);
#138=ORIENTED_EDGE('',*,*,#106,.F.);
#139=ORIENTED_EDGE('',*,*,#115,.T.);
#140=ORIENTED_EDGE('',*,*,#116,.T.);
#141=ORIENTED_EDGE('',*,*,#115,.F.);
#142=ORIENTED_EDGE('',*,*,#116,.F.);
#143=ORIENTED_EDGE('',*,*,#117,.F.);
#144=ORIENTED_EDGE('',*,*,#118,.F.);
#145=ORIENTED_EDGE('',*,*,#119,.F.);
#146=ORIENTED_EDGE('',*,*,#120,.F.);
#147=ORIENTED_EDGE('',*,*,#121,.F.);
#148=ORIENTED_EDGE('',*,*,#114,.F.);
#149=ORIENTED_EDGE('',*,*,#111,.F.);
#150=ORIENTED_EDGE('',*,*,#122,.T.);
#151=ORIENTED_EDGE('',*,*,#121,.T.);
#152=ORIENTED_EDGE('',*,*,#122,.F.);
#153=ORIENTED_EDGE('',*,*,#110,.F.);
#154=ORIENTED_EDGE('',*,*,#123,.T.);
#155=ORIENTED_EDGE('',*,*,#120,.T.);
#156=ORIENTED_EDGE('',*,*,#123,.F.);
#157=ORIENTED_EDGE('',*,*,#109,.F.);
#158=ORIENTED_EDGE('',*,*,#124,.T.);
#159=ORIENTED_EDGE('',*,*,#119,.T.);
#160=ORIENTED_EDGE('',*,*,#124,.F.);
#161=ORIENTED_EDGE('',*,*,#108,.F.);
#162=ORIENTED_EDGE('',*,*,#125,.T.);
#163=ORIENTED_EDGE('',*,*,#118,.T.);
#164=ORIENTED_EDGE('',*,*,#125,.F.);
#165=ORIENTED_EDGE('',*,*,#107,.F.);
#166=ORIENTED_EDGE('',*,*,#126,.T.);
#167=ORIENTED_EDGE('',*,*,#117,.T.);
#168=ORIENTED_EDGE('',*,*,#126,.F.);
#169=PLANE('',#194);
#170=PLANE('',#206);
#171=ADVANCED_FACE('',(#48,#36,#37,#38,#39,#40,#41),#169,.T.);
#172=ADVANCED_FACE('',(#49),#29,.F.);
#173=ADVANCED_FACE('',(#50),#30,.T.);
#174=ADVANCED_FACE('',(#51,#42,#43,#44,#45,#46,#47),#170,.F.);
#175=ADVANCED_FACE('',(#52),#31,.F.);
#176=ADVANCED_FACE('',(#53),#32,.F.);
#177=ADVANCED_FACE('',(#54),#33,.F.);
#178=ADVANCED_FACE('',(#55),#34,.F.);
#179=ADVANCED_FACE('',(#56),#35,.F.);
#180=CLOSED_SHELL('',(#171,#172,#173,#174,#175,#176,#177,#178,#179));
#181=DERIVED_UNIT_ELEMENT(#183,1.);
#182=DERIVED_UNIT_ELEMENT(#322,-3.);
#183=(
MASS_UNIT()
NAMED_UNIT(*)
SI_UNIT(.KILO.,.GRAM.)
);
#184=DERIVED_UNIT((#181,#182));
#185=MEASURE_REPRESENTATION_ITEM('density measure',
POSITIVE_RATIO_MEASURE(7850.),#184);
#186=PROPERTY_DEFINITION_REPRESENTATION(#191,#188);
#187=PROPERTY_DEFINITION_REPRESENTATION(#192,#189);
#188=REPRESENTATION('material name',(#190),#319);
#189=REPRESENTATION('density',(#185),#319);
#190=DESCRIPTIVE_REPRESENTATION_ITEM('Steel','Steel');
#191=PROPERTY_DEFINITION('material property','material name',#329);
#192=PROPERTY_DEFINITION('material property','density of part',#329);
#193=AXIS2_PLACEMENT_3D('',#272,#217,#218);
#194=AXIS2_PLACEMENT_3D('',#273,#219,#220);
#195=AXIS2_PLACEMENT_3D('',#275,#221,#222);
#196=AXIS2_PLACEMENT_3D('',#277,#223,#224);
#197=AXIS2_PLACEMENT_3D('',#279,#225,#226);
#198=AXIS2_PLACEMENT_3D('',#281,#227,#228);
#199=AXIS2_PLACEMENT_3D('',#283,#229,#230);
#200=AXIS2_PLACEMENT_3D('',#285,#231,#232);
#201=AXIS2_PLACEMENT_3D('',#287,#233,#234);
#202=AXIS2_PLACEMENT_3D('',#288,#235,#236);
#203=AXIS2_PLACEMENT_3D('',#291,#238,#239);
#204=AXIS2_PLACEMENT_3D('',#292,#240,#241);
#205=AXIS2_PLACEMENT_3D('',#295,#243,#244);
#206=AXIS2_PLACEMENT_3D('',#296,#245,#246);
#207=AXIS2_PLACEMENT_3D('',#298,#247,#248);
#208=AXIS2_PLACEMENT_3D('',#300,#249,#250);
#209=AXIS2_PLACEMENT_3D('',#302,#251,#252);
#210=AXIS2_PLACEMENT_3D('',#304,#253,#254);
#211=AXIS2_PLACEMENT_3D('',#306,#255,#256);
#212=AXIS2_PLACEMENT_3D('',#307,#257,#258);
#213=AXIS2_PLACEMENT_3D('',#309,#260,#261);
#214=AXIS2_PLACEMENT_3D('',#311,#263,#264);
#215=AXIS2_PLACEMENT_3D('',#313,#266,#267);
#216=AXIS2_PLACEMENT_3D('',#315,#269,#270);
#217=DIRECTION('axis',(0.,0.,1.));
#218=DIRECTION('refdir',(1.,0.,0.));
#219=DIRECTION('center_axis',(0.,0.,1.));
#220=DIRECTION('ref_axis',(1.,0.,0.));
#221=DIRECTION('center_axis',(0.,0.,1.));
#222=DIRECTION('ref_axis',(1.,0.,0.));
#223=DIRECTION('center_axis',(0.,0.,-1.));
#224=DIRECTION('ref_axis',(0.499999999999999,-0.866025403784439,0.));
#225=DIRECTION('center_axis',(0.,0.,-1.));
#226=DIRECTION('ref_axis',(-0.500000000000001,-0.866025403784438,0.));
#227=DIRECTION('center_axis',(0.,0.,-1.));
#228=DIRECTION('ref_axis',(-1.,1.22464679914735E-16,0.));
#229=DIRECTION('center_axis',(0.,0.,-1.));
#230=DIRECTION('ref_axis',(-0.5,0.866025403784439,0.));
#231=DIRECTION('center_axis',(0.,0.,-1.));
#232=DIRECTION('ref_axis',(0.5,0.866025403784439,0.));
#233=DIRECTION('center_axis',(0.,0.,-1.));
#234=DIRECTION('ref_axis',(1.,0.,0.));
#235=DIRECTION('center_axis',(0.,0.,1.));
#236=DIRECTION('ref_axis',(1.,0.,0.));
#237=DIRECTION('',(0.,0.,-1.));
#238=DIRECTION('center_axis',(0.,0.,-1.));
#239=DIRECTION('ref_axis',(1.,0.,0.));
#240=DIRECTION('center_axis',(0.,0.,1.));
#241=DIRECTION('ref_axis',(1.,0.,0.));
#242=DIRECTION('',(0.,0.,-1.));
#243=DIRECTION('center_axis',(0.,0.,1.));
#244=DIRECTION('ref_axis',(1.,0.,0.));
#245=DIRECTION('center_axis',(0.,0.,1.));
#246=DIRECTION('ref_axis',(1.,0.,0.));
#247=DIRECTION('center_axis',(0.,0.,-1.));
#248=DIRECTION('ref_axis',(0.499999999999999,-0.866025403784439,0.));
#249=DIRECTION('center_axis',(0.,0.,-1.));
#250=DIRECTION('ref_axis',(-0.500000000000001,-0.866025403784438,0.));
#251=DIRECTION('center_axis',(0.,0.,-1.));
#252=DIRECTION('ref_axis',(-1.,1.22464679914735E-16,0.));
#253=DIRECTION('center_axis',(0.,0.,-1.));
#254=DIRECTION('ref_axis',(-0.5,0.866025403784439,0.));
#255=DIRECTION('center_axis',(0.,0.,-1.));
#256=DIRECTION('ref_axis',(0.5,0.866025403784439,0.));
#257=DIRECTION('center_axis',(0.,0.,1.));
#258=DIRECTION('ref_axis',(0.5,0.866025403784439,0.));
#259=DIRECTION('',(0.,0.,-1.));
#260=DIRECTION('center_axis',(0.,0.,1.));
#261=DIRECTION('ref_axis',(-0.5,0.866025403784439,0.));
#262=DIRECTION('',(0.,0.,-1.));
#263=DIRECTION('center_axis',(0.,0.,1.));
#264=DIRECTION('ref_axis',(-1.,1.22464679914735E-16,0.));
#265=DIRECTION('',(0.,0.,-1.));
#266=DIRECTION('center_axis',(0.,0.,1.));
#267=DIRECTION('ref_axis',(-0.500000000000001,-0.866025403784438,0.));
#268=DIRECTION('',(0.,0.,-1.));
#269=DIRECTION('center_axis',(0.,0.,1.));
#270=DIRECTION('ref_axis',(0.499999999999999,-0.866025403784439,0.));
#271=DIRECTION('',(0.,0.,-1.));
#272=CARTESIAN_POINT('',(0.,0.,0.));
#273=CARTESIAN_POINT('Origin',(0.,0.,3.5));
#274=CARTESIAN_POINT('',(-16.3,-2.22044604925031E-15,3.5));
#275=CARTESIAN_POINT('Origin',(0.,0.,3.5));
#276=CARTESIAN_POINT('',(5.92798828902934,11.5812185558304,3.5));
#277=CARTESIAN_POINT('Origin',(6.97798828902934,9.76256520788309,3.5));
#278=CARTESIAN_POINT('',(12.9936236206435,0.656820826279156,3.5));
#279=CARTESIAN_POINT('Origin',(11.9436236206435,-1.16183252166817,3.5));
#280=CARTESIAN_POINT('',(7.06563533161421,-10.9243977295513,3.5));
#281=CARTESIAN_POINT('Origin',(4.96563533161421,-10.9243977295513,3.5));
#282=CARTESIAN_POINT('',(-5.92798828902933,-11.5812185558304,3.5));
#283=CARTESIAN_POINT('Origin',(-6.97798828902933,-9.7625652078831,3.5));
#284=CARTESIAN_POINT('',(-12.9936236206435,-0.656820826279161,3.5));
#285=CARTESIAN_POINT('Origin',(-11.9436236206435,1.16183252166816,3.5));
#286=CARTESIAN_POINT('',(-7.06563533161421,10.9243977295513,3.5));
#287=CARTESIAN_POINT('Origin',(-4.96563533161421,10.9243977295513,3.5));
#288=CARTESIAN_POINT('Origin',(-4.96563533161421,10.9243977295513,0.));
#289=CARTESIAN_POINT('',(-7.06563533161421,10.9243977295513,0.));
#290=CARTESIAN_POINT('',(-7.06563533161421,10.9243977295513,0.));
#291=CARTESIAN_POINT('Origin',(-4.96563533161421,10.9243977295513,0.));
#292=CARTESIAN_POINT('Origin',(0.,0.,0.));
#293=CARTESIAN_POINT('',(-16.3,-1.99617428261019E-15,0.));
#294=CARTESIAN_POINT('',(-16.3,-1.99617428261019E-15,0.));
#295=CARTESIAN_POINT('Origin',(0.,0.,0.));
#296=CARTESIAN_POINT('Origin',(0.,0.,0.));
#297=CARTESIAN_POINT('',(5.92798828902934,11.5812185558304,0.));
#298=CARTESIAN_POINT('Origin',(6.97798828902934,9.76256520788309,0.));
#299=CARTESIAN_POINT('',(12.9936236206435,0.656820826279155,0.));
#300=CARTESIAN_POINT('Origin',(11.9436236206435,-1.16183252166817,0.));
#301=CARTESIAN_POINT('',(7.06563533161421,-10.9243977295513,0.));
#302=CARTESIAN_POINT('Origin',(4.96563533161421,-10.9243977295513,0.));
#303=CARTESIAN_POINT('',(-5.92798828902933,-11.5812185558304,0.));
#304=CARTESIAN_POINT('Origin',(-6.97798828902933,-9.7625652078831,0.));
#305=CARTESIAN_POINT('',(-12.9936236206435,-0.65682082627916,0.));
#306=CARTESIAN_POINT('Origin',(-11.9436236206435,1.16183252166816,0.));
#307=CARTESIAN_POINT('Origin',(-11.9436236206435,1.16183252166816,0.));
#308=CARTESIAN_POINT('',(-12.9936236206435,-0.656820826279161,0.));
#309=CARTESIAN_POINT('Origin',(-6.97798828902933,-9.7625652078831,0.));
#310=CARTESIAN_POINT('',(-5.92798828902933,-11.5812185558304,0.));
#311=CARTESIAN_POINT('Origin',(4.96563533161421,-10.9243977295513,0.));
#312=CARTESIAN_POINT('',(7.06563533161421,-10.9243977295513,0.));
#313=CARTESIAN_POINT('Origin',(11.9436236206435,-1.16183252166817,0.));
#314=CARTESIAN_POINT('',(12.9936236206435,0.656820826279156,0.));
#315=CARTESIAN_POINT('Origin',(6.97798828902934,9.76256520788309,0.));
#316=CARTESIAN_POINT('',(5.92798828902934,11.5812185558304,0.));
#317=UNCERTAINTY_MEASURE_WITH_UNIT(LENGTH_MEASURE(0.01),#321,
'DISTANCE_ACCURACY_VALUE',
'Maximum model space distance between geometric entities at asserted c
onnectivities');
#318=UNCERTAINTY_MEASURE_WITH_UNIT(LENGTH_MEASURE(0.01),#321,
'DISTANCE_ACCURACY_VALUE',
'Maximum model space distance between geometric entities at asserted c
onnectivities');
#319=(
GEOMETRIC_REPRESENTATION_CONTEXT(3)
GLOBAL_UNCERTAINTY_ASSIGNED_CONTEXT((#317))
GLOBAL_UNIT_ASSIGNED_CONTEXT((#321,#323,#324))
REPRESENTATION_CONTEXT('','3D')
);
#320=(
GEOMETRIC_REPRESENTATION_CONTEXT(3)
GLOBAL_UNCERTAINTY_ASSIGNED_CONTEXT((#318))
GLOBAL_UNIT_ASSIGNED_CONTEXT((#321,#323,#324))
REPRESENTATION_CONTEXT('','3D')
);
#321=(
LENGTH_UNIT()
NAMED_UNIT(*)
SI_UNIT(.MILLI.,.METRE.)
);
#322=(
LENGTH_UNIT()
NAMED_UNIT(*)
SI_UNIT($,.METRE.)
);
#323=(
NAMED_UNIT(*)
PLANE_ANGLE_UNIT()
SI_UNIT($,.RADIAN.)
);
#324=(
NAMED_UNIT(*)
SI_UNIT($,.STERADIAN.)
SOLID_ANGLE_UNIT()
);
#325=SHAPE_DEFINITION_REPRESENTATION(#326,#327);
#326=PRODUCT_DEFINITION_SHAPE('',$,#329);
#327=SHAPE_REPRESENTATION('',(#193),#319);
#328=PRODUCT_DEFINITION_CONTEXT('part definition',#333,'design');
#329=PRODUCT_DEFINITION('2026-04-12-10-55-31-456','center piece 3.5mm',
#330,#328);
#330=PRODUCT_DEFINITION_FORMATION('',$,#335);
#331=PRODUCT_RELATED_PRODUCT_CATEGORY('center piece 3.5mm',
'center piece 3.5mm',(#335));
#332=APPLICATION_PROTOCOL_DEFINITION('international standard',
'automotive_design',2009,#333);
#333=APPLICATION_CONTEXT(
'Core Data for Automotive Mechanical Design Process');
#334=PRODUCT_CONTEXT('part definition',#333,'mechanical');
#335=PRODUCT('2026-04-12-10-55-31-456','center piece 3.5mm',$,(#334));
#336=PRESENTATION_STYLE_ASSIGNMENT((#337));
#337=SURFACE_STYLE_USAGE(.BOTH.,#338);
#338=SURFACE_SIDE_STYLE('',(#339));
#339=SURFACE_STYLE_FILL_AREA(#340);
#340=FILL_AREA_STYLE('Steel - Satin',(#341));
#341=FILL_AREA_STYLE_COLOUR('Steel - Satin',#342);
#342=COLOUR_RGB('Steel - Satin',0.627450980392157,0.627450980392157,0.627450980392157);
ENDSEC;
END-ISO-10303-21;
