ISO-10303-21;
HEADER;
/* Generated by software containing ST-Developer
 * from STEP Tools, Inc. (www.steptools.com) 
 */

FILE_DESCRIPTION(
/* description */ (''),
/* implementation_level */ '2;1');

FILE_NAME(
/* name */ 'center piece 10mm.step',
/* time_stamp */ '2026-10-01T16:15:25+02:00',
/* author */ (''),
/* organization */ (''),
/* preprocessor_version */ 'ST-DEVELOPER v20.2',
/* originating_system */ 'Autodesk Translation Framework v15.15.0.0',
/* authorisation */ '');

FILE_SCHEMA (('AUTOMOTIVE_DESIGN { 1 0 10303 214 3 1 1 }'));
ENDSEC;

DATA;
#10=MECHANICAL_DESIGN_GEOMETRIC_PRESENTATION_REPRESENTATION('',(#13),#320);
#11=SHAPE_REPRESENTATION_RELATIONSHIP('SRR','None',#327,#12);
#12=ADVANCED_BREP_SHAPE_REPRESENTATION('',(#14),#319);
#13=STYLED_ITEM('',(#336),#14);
#14=MANIFOLD_SOLID_BREP('Body1',#180);
#15=FACE_BOUND('',#41,.T.);
#16=FACE_BOUND('',#42,.T.);
#17=FACE_BOUND('',#43,.T.);
#18=FACE_BOUND('',#44,.T.);
#19=FACE_BOUND('',#45,.T.);
#20=FACE_BOUND('',#46,.T.);
#21=FACE_BOUND('',#48,.T.);
#22=FACE_BOUND('',#49,.T.);
#23=FACE_BOUND('',#50,.T.);
#24=FACE_BOUND('',#51,.T.);
#25=FACE_BOUND('',#52,.T.);
#26=FACE_BOUND('',#53,.T.);
#27=PLANE('',#200);
#28=PLANE('',#206);
#29=FACE_OUTER_BOUND('',#38,.T.);
#30=FACE_OUTER_BOUND('',#39,.T.);
#31=FACE_OUTER_BOUND('',#40,.T.);
#32=FACE_OUTER_BOUND('',#47,.T.);
#33=FACE_OUTER_BOUND('',#54,.T.);
#34=FACE_OUTER_BOUND('',#55,.T.);
#35=FACE_OUTER_BOUND('',#56,.T.);
#36=FACE_OUTER_BOUND('',#57,.T.);
#37=FACE_OUTER_BOUND('',#58,.T.);
#38=EDGE_LOOP('',(#122,#123,#124,#125));
#39=EDGE_LOOP('',(#126,#127,#128,#129));
#40=EDGE_LOOP('',(#130));
#41=EDGE_LOOP('',(#131));
#42=EDGE_LOOP('',(#132));
#43=EDGE_LOOP('',(#133));
#44=EDGE_LOOP('',(#134));
#45=EDGE_LOOP('',(#135));
#46=EDGE_LOOP('',(#136));
#47=EDGE_LOOP('',(#137));
#48=EDGE_LOOP('',(#138));
#49=EDGE_LOOP('',(#139));
#50=EDGE_LOOP('',(#140));
#51=EDGE_LOOP('',(#141));
#52=EDGE_LOOP('',(#142));
#53=EDGE_LOOP('',(#143));
#54=EDGE_LOOP('',(#144,#145,#146,#147));
#55=EDGE_LOOP('',(#148,#149,#150,#151));
#56=EDGE_LOOP('',(#152,#153,#154,#155));
#57=EDGE_LOOP('',(#156,#157,#158,#159));
#58=EDGE_LOOP('',(#160,#161,#162,#163));
#59=LINE('',#277,#66);
#60=LINE('',#283,#67);
#61=LINE('',#308,#68);
#62=LINE('',#310,#69);
#63=LINE('',#312,#70);
#64=LINE('',#314,#71);
#65=LINE('',#316,#72);
#66=VECTOR('',#223,2.125);
#67=VECTOR('',#230,16.25);
#68=VECTOR('',#259,2.125);
#69=VECTOR('',#262,2.125);
#70=VECTOR('',#265,2.125);
#71=VECTOR('',#268,2.125);
#72=VECTOR('',#271,2.125);
#73=CIRCLE('',#195,2.125);
#74=CIRCLE('',#196,2.125);
#75=CIRCLE('',#198,16.25);
#76=CIRCLE('',#199,16.25);
#77=CIRCLE('',#201,2.125);
#78=CIRCLE('',#202,2.125);
#79=CIRCLE('',#203,2.125);
#80=CIRCLE('',#204,2.125);
#81=CIRCLE('',#205,2.125);
#82=CIRCLE('',#207,2.125);
#83=CIRCLE('',#208,2.125);
#84=CIRCLE('',#209,2.125);
#85=CIRCLE('',#210,2.125);
#86=CIRCLE('',#211,2.125);
#87=VERTEX_POINT('',#274);
#88=VERTEX_POINT('',#276);
#89=VERTEX_POINT('',#280);
#90=VERTEX_POINT('',#282);
#91=VERTEX_POINT('',#286);
#92=VERTEX_POINT('',#288);
#93=VERTEX_POINT('',#290);
#94=VERTEX_POINT('',#292);
#95=VERTEX_POINT('',#294);
#96=VERTEX_POINT('',#297);
#97=VERTEX_POINT('',#299);
#98=VERTEX_POINT('',#301);
#99=VERTEX_POINT('',#303);
#100=VERTEX_POINT('',#305);
#101=EDGE_CURVE('',#87,#87,#73,.T.);
#102=EDGE_CURVE('',#87,#88,#59,.T.);
#103=EDGE_CURVE('',#88,#88,#74,.T.);
#104=EDGE_CURVE('',#89,#89,#75,.T.);
#105=EDGE_CURVE('',#89,#90,#60,.T.);
#106=EDGE_CURVE('',#90,#90,#76,.T.);
#107=EDGE_CURVE('',#91,#91,#77,.T.);
#108=EDGE_CURVE('',#92,#92,#78,.T.);
#109=EDGE_CURVE('',#93,#93,#79,.T.);
#110=EDGE_CURVE('',#94,#94,#80,.T.);
#111=EDGE_CURVE('',#95,#95,#81,.T.);
#112=EDGE_CURVE('',#96,#96,#82,.T.);
#113=EDGE_CURVE('',#97,#97,#83,.T.);
#114=EDGE_CURVE('',#98,#98,#84,.T.);
#115=EDGE_CURVE('',#99,#99,#85,.T.);
#116=EDGE_CURVE('',#100,#100,#86,.T.);
#117=EDGE_CURVE('',#95,#100,#61,.T.);
#118=EDGE_CURVE('',#94,#99,#62,.T.);
#119=EDGE_CURVE('',#93,#98,#63,.T.);
#120=EDGE_CURVE('',#92,#97,#64,.T.);
#121=EDGE_CURVE('',#91,#96,#65,.T.);
#122=ORIENTED_EDGE('',*,*,#101,.F.);
#123=ORIENTED_EDGE('',*,*,#102,.T.);
#124=ORIENTED_EDGE('',*,*,#103,.T.);
#125=ORIENTED_EDGE('',*,*,#102,.F.);
#126=ORIENTED_EDGE('',*,*,#104,.F.);
#127=ORIENTED_EDGE('',*,*,#105,.T.);
#128=ORIENTED_EDGE('',*,*,#106,.T.);
#129=ORIENTED_EDGE('',*,*,#105,.F.);
#130=ORIENTED_EDGE('',*,*,#104,.T.);
#131=ORIENTED_EDGE('',*,*,#107,.T.);
#132=ORIENTED_EDGE('',*,*,#108,.T.);
#133=ORIENTED_EDGE('',*,*,#109,.T.);
#134=ORIENTED_EDGE('',*,*,#110,.T.);
#135=ORIENTED_EDGE('',*,*,#111,.T.);
#136=ORIENTED_EDGE('',*,*,#101,.T.);
#137=ORIENTED_EDGE('',*,*,#106,.F.);
#138=ORIENTED_EDGE('',*,*,#112,.F.);
#139=ORIENTED_EDGE('',*,*,#113,.F.);
#140=ORIENTED_EDGE('',*,*,#114,.F.);
#141=ORIENTED_EDGE('',*,*,#115,.F.);
#142=ORIENTED_EDGE('',*,*,#116,.F.);
#143=ORIENTED_EDGE('',*,*,#103,.F.);
#144=ORIENTED_EDGE('',*,*,#111,.F.);
#145=ORIENTED_EDGE('',*,*,#117,.T.);
#146=ORIENTED_EDGE('',*,*,#116,.T.);
#147=ORIENTED_EDGE('',*,*,#117,.F.);
#148=ORIENTED_EDGE('',*,*,#110,.F.);
#149=ORIENTED_EDGE('',*,*,#118,.T.);
#150=ORIENTED_EDGE('',*,*,#115,.T.);
#151=ORIENTED_EDGE('',*,*,#118,.F.);
#152=ORIENTED_EDGE('',*,*,#109,.F.);
#153=ORIENTED_EDGE('',*,*,#119,.T.);
#154=ORIENTED_EDGE('',*,*,#114,.T.);
#155=ORIENTED_EDGE('',*,*,#119,.F.);
#156=ORIENTED_EDGE('',*,*,#108,.F.);
#157=ORIENTED_EDGE('',*,*,#120,.T.);
#158=ORIENTED_EDGE('',*,*,#113,.T.);
#159=ORIENTED_EDGE('',*,*,#120,.F.);
#160=ORIENTED_EDGE('',*,*,#107,.F.);
#161=ORIENTED_EDGE('',*,*,#121,.T.);
#162=ORIENTED_EDGE('',*,*,#112,.T.);
#163=ORIENTED_EDGE('',*,*,#121,.F.);
#164=CYLINDRICAL_SURFACE('',#194,2.125);
#165=CYLINDRICAL_SURFACE('',#197,16.25);
#166=CYLINDRICAL_SURFACE('',#212,2.125);
#167=CYLINDRICAL_SURFACE('',#213,2.125);
#168=CYLINDRICAL_SURFACE('',#214,2.125);
#169=CYLINDRICAL_SURFACE('',#215,2.125);
#170=CYLINDRICAL_SURFACE('',#216,2.125);
#171=ADVANCED_FACE('',(#29),#164,.F.);
#172=ADVANCED_FACE('',(#30),#165,.T.);
#173=ADVANCED_FACE('',(#31,#15,#16,#17,#18,#19,#20),#27,.T.);
#174=ADVANCED_FACE('',(#32,#21,#22,#23,#24,#25,#26),#28,.F.);
#175=ADVANCED_FACE('',(#33),#166,.F.);
#176=ADVANCED_FACE('',(#34),#167,.F.);
#177=ADVANCED_FACE('',(#35),#168,.F.);
#178=ADVANCED_FACE('',(#36),#169,.F.);
#179=ADVANCED_FACE('',(#37),#170,.F.);
#180=CLOSED_SHELL('',(#171,#172,#173,#174,#175,#176,#177,#178,#179));
#181=DERIVED_UNIT_ELEMENT(#183,1.);
#182=DERIVED_UNIT_ELEMENT(#322,-3.);
#183=(
MASS_UNIT()
NAMED_UNIT(*)
SI_UNIT(.KILO.,.GRAM.)
);
#184=DERIVED_UNIT((#181,#182));
#185=MEASURE_REPRESENTATION_ITEM('density measure',
POSITIVE_RATIO_MEASURE(7850.),#184);
#186=PROPERTY_DEFINITION_REPRESENTATION(#191,#188);
#187=PROPERTY_DEFINITION_REPRESENTATION(#192,#189);
#188=REPRESENTATION('material name',(#190),#319);
#189=REPRESENTATION('density',(#185),#319);
#190=DESCRIPTIVE_REPRESENTATION_ITEM('Steel','Steel');
#191=PROPERTY_DEFINITION('material property','material name',#329);
#192=PROPERTY_DEFINITION('material property','density of part',#329);
#193=AXIS2_PLACEMENT_3D('',#272,#217,#218);
#194=AXIS2_PLACEMENT_3D('',#273,#219,#220);
#195=AXIS2_PLACEMENT_3D('',#275,#221,#222);
#196=AXIS2_PLACEMENT_3D('',#278,#224,#225);
#197=AXIS2_PLACEMENT_3D('',#279,#226,#227);
#198=AXIS2_PLACEMENT_3D('',#281,#228,#229);
#199=AXIS2_PLACEMENT_3D('',#284,#231,#232);
#200=AXIS2_PLACEMENT_3D('',#285,#233,#234);
#201=AXIS2_PLACEMENT_3D('',#287,#235,#236);
#202=AXIS2_PLACEMENT_3D('',#289,#237,#238);
#203=AXIS2_PLACEMENT_3D('',#291,#239,#240);
#204=AXIS2_PLACEMENT_3D('',#293,#241,#242);
#205=AXIS2_PLACEMENT_3D('',#295,#243,#244);
#206=AXIS2_PLACEMENT_3D('',#296,#245,#246);
#207=AXIS2_PLACEMENT_3D('',#298,#247,#248);
#208=AXIS2_PLACEMENT_3D('',#300,#249,#250);
#209=AXIS2_PLACEMENT_3D('',#302,#251,#252);
#210=AXIS2_PLACEMENT_3D('',#304,#253,#254);
#211=AXIS2_PLACEMENT_3D('',#306,#255,#256);
#212=AXIS2_PLACEMENT_3D('',#307,#257,#258);
#213=AXIS2_PLACEMENT_3D('',#309,#260,#261);
#214=AXIS2_PLACEMENT_3D('',#311,#263,#264);
#215=AXIS2_PLACEMENT_3D('',#313,#266,#267);
#216=AXIS2_PLACEMENT_3D('',#315,#269,#270);
#217=DIRECTION('axis',(0.,0.,1.));
#218=DIRECTION('refdir',(1.,0.,0.));
#219=DIRECTION('center_axis',(0.,0.,1.));
#220=DIRECTION('ref_axis',(1.,0.,0.));
#221=DIRECTION('center_axis',(0.,0.,-1.));
#222=DIRECTION('ref_axis',(1.,0.,0.));
#223=DIRECTION('',(0.,0.,-1.));
#224=DIRECTION('center_axis',(0.,0.,-1.));
#225=DIRECTION('ref_axis',(1.,0.,0.));
#226=DIRECTION('center_axis',(0.,0.,1.));
#227=DIRECTION('ref_axis',(1.,0.,0.));
#228=DIRECTION('center_axis',(0.,0.,1.));
#229=DIRECTION('ref_axis',(1.,0.,0.));
#230=DIRECTION('',(0.,0.,-1.));
#231=DIRECTION('center_axis',(0.,0.,1.));
#232=DIRECTION('ref_axis',(1.,0.,0.));
#233=DIRECTION('center_axis',(0.,0.,1.));
#234=DIRECTION('ref_axis',(1.,0.,0.));
#235=DIRECTION('center_axis',(0.,0.,-1.));
#236=DIRECTION('ref_axis',(0.499999999999999,-0.866025403784439,0.));
#237=DIRECTION('center_axis',(0.,0.,-1.));
#238=DIRECTION('ref_axis',(-0.5,-0.866025403784438,0.));
#239=DIRECTION('center_axis',(0.,0.,-1.));
#240=DIRECTION('ref_axis',(-1.,1.22464679914735E-16,0.));
#241=DIRECTION('center_axis',(0.,0.,-1.));
#242=DIRECTION('ref_axis',(-0.5,0.866025403784439,0.));
#243=DIRECTION('center_axis',(0.,0.,-1.));
#244=DIRECTION('ref_axis',(0.5,0.866025403784439,0.));
#245=DIRECTION('center_axis',(0.,0.,1.));
#246=DIRECTION('ref_axis',(1.,0.,0.));
#247=DIRECTION('center_axis',(0.,0.,-1.));
#248=DIRECTION('ref_axis',(0.499999999999999,-0.866025403784439,0.));
#249=DIRECTION('center_axis',(0.,0.,-1.));
#250=DIRECTION('ref_axis',(-0.5,-0.866025403784438,0.));
#251=DIRECTION('center_axis',(0.,0.,-1.));
#252=DIRECTION('ref_axis',(-1.,1.22464679914735E-16,0.));
#253=DIRECTION('center_axis',(0.,0.,-1.));
#254=DIRECTION('ref_axis',(-0.5,0.866025403784439,0.));
#255=DIRECTION('center_axis',(0.,0.,-1.));
#256=DIRECTION('ref_axis',(0.5,0.866025403784439,0.));
#257=DIRECTION('center_axis',(0.,0.,1.));
#258=DIRECTION('ref_axis',(0.5,0.866025403784439,0.));
#259=DIRECTION('',(0.,0.,-1.));
#260=DIRECTION('center_axis',(0.,0.,1.));
#261=DIRECTION('ref_axis',(-0.5,0.866025403784439,0.));
#262=DIRECTION('',(0.,0.,-1.));
#263=DIRECTION('center_axis',(0.,0.,1.));
#264=DIRECTION('ref_axis',(-1.,1.22464679914735E-16,0.));
#265=DIRECTION('',(0.,0.,-1.));
#266=DIRECTION('center_axis',(0.,0.,1.));
#267=DIRECTION('ref_axis',(-0.5,-0.866025403784438,0.));
#268=DIRECTION('',(0.,0.,-1.));
#269=DIRECTION('center_axis',(0.,0.,1.));
#270=DIRECTION('ref_axis',(0.499999999999999,-0.866025403784439,0.));
#271=DIRECTION('',(0.,0.,-1.));
#272=CARTESIAN_POINT('',(0.,0.,0.));
#273=CARTESIAN_POINT('Origin',(-4.96563533161421,10.9243977295513,0.));
#274=CARTESIAN_POINT('',(-7.09063533161421,10.9243977295513,10.));
#275=CARTESIAN_POINT('Origin',(-4.96563533161421,10.9243977295513,10.));
#276=CARTESIAN_POINT('',(-7.09063533161421,10.9243977295513,0.));
#277=CARTESIAN_POINT('',(-7.09063533161421,10.9243977295513,0.));
#278=CARTESIAN_POINT('Origin',(-4.96563533161421,10.9243977295513,0.));
#279=CARTESIAN_POINT('Origin',(0.,0.,0.));
#280=CARTESIAN_POINT('',(-16.25,-2.22044604925031E-15,10.));
#281=CARTESIAN_POINT('Origin',(0.,0.,10.));
#282=CARTESIAN_POINT('',(-16.25,-1.99005104861445E-15,0.));
#283=CARTESIAN_POINT('',(-16.25,-1.99005104861445E-15,0.));
#284=CARTESIAN_POINT('Origin',(0.,0.,0.));
#285=CARTESIAN_POINT('Origin',(0.,0.,10.));
#286=CARTESIAN_POINT('',(5.91548828902934,11.602869190925,10.));
#287=CARTESIAN_POINT('Origin',(6.97798828902934,9.76256520788309,10.));
#288=CARTESIAN_POINT('',(13.0061236206435,0.678471461373766,10.));
#289=CARTESIAN_POINT('Origin',(11.9436236206435,-1.16183252166817,10.));
#290=CARTESIAN_POINT('',(7.09063533161421,-10.9243977295513,10.));
#291=CARTESIAN_POINT('Origin',(4.96563533161421,-10.9243977295513,10.));
#292=CARTESIAN_POINT('',(-5.91548828902933,-11.602869190925,10.));
#293=CARTESIAN_POINT('Origin',(-6.97798828902933,-9.7625652078831,10.));
#294=CARTESIAN_POINT('',(-13.0061236206435,-0.678471461373771,10.));
#295=CARTESIAN_POINT('Origin',(-11.9436236206435,1.16183252166816,10.));
#296=CARTESIAN_POINT('Origin',(0.,0.,0.));
#297=CARTESIAN_POINT('',(5.91548828902934,11.602869190925,0.));
#298=CARTESIAN_POINT('Origin',(6.97798828902934,9.76256520788309,0.));
#299=CARTESIAN_POINT('',(13.0061236206435,0.678471461373766,0.));
#300=CARTESIAN_POINT('Origin',(11.9436236206435,-1.16183252166817,0.));
#301=CARTESIAN_POINT('',(7.09063533161421,-10.9243977295513,0.));
#302=CARTESIAN_POINT('Origin',(4.96563533161421,-10.9243977295513,0.));
#303=CARTESIAN_POINT('',(-5.91548828902933,-11.602869190925,0.));
#304=CARTESIAN_POINT('Origin',(-6.97798828902933,-9.7625652078831,0.));
#305=CARTESIAN_POINT('',(-13.0061236206435,-0.678471461373771,0.));
#306=CARTESIAN_POINT('Origin',(-11.9436236206435,1.16183252166816,0.));
#307=CARTESIAN_POINT('Origin',(-11.9436236206435,1.16183252166816,0.));
#308=CARTESIAN_POINT('',(-13.0061236206435,-0.678471461373771,0.));
#309=CARTESIAN_POINT('Origin',(-6.97798828902933,-9.7625652078831,0.));
#310=CARTESIAN_POINT('',(-5.91548828902933,-11.602869190925,0.));
#311=CARTESIAN_POINT('Origin',(4.96563533161421,-10.9243977295513,0.));
#312=CARTESIAN_POINT('',(7.09063533161421,-10.9243977295513,0.));
#313=CARTESIAN_POINT('Origin',(11.9436236206435,-1.16183252166817,0.));
#314=CARTESIAN_POINT('',(13.0061236206435,0.678471461373767,0.));
#315=CARTESIAN_POINT('Origin',(6.97798828902934,9.76256520788309,0.));
#316=CARTESIAN_POINT('',(5.91548828902934,11.602869190925,0.));
#317=UNCERTAINTY_MEASURE_WITH_UNIT(LENGTH_MEASURE(0.01),#321,
'DISTANCE_ACCURACY_VALUE',
'Maximum model space distance between geometric entities at asserted c
onnectivities');
#318=UNCERTAINTY_MEASURE_WITH_UNIT(LENGTH_MEASURE(0.01),#321,
'DISTANCE_ACCURACY_VALUE',
'Maximum model space distance between geometric entities at asserted c
onnectivities');
#319=(
GEOMETRIC_REPRESENTATION_CONTEXT(3)
GLOBAL_UNCERTAINTY_ASSIGNED_CONTEXT((#317))
GLOBAL_UNIT_ASSIGNED_CONTEXT((#321,#323,#324))
REPRESENTATION_CONTEXT('','3D')
);
#320=(
GEOMETRIC_REPRESENTATION_CONTEXT(3)
GLOBAL_UNCERTAINTY_ASSIGNED_CONTEXT((#318))
GLOBAL_UNIT_ASSIGNED_CONTEXT((#321,#323,#324))
REPRESENTATION_CONTEXT('','3D')
);
#321=(
LENGTH_UNIT()
NAMED_UNIT(*)
SI_UNIT(.MILLI.,.METRE.)
);
#322=(
LENGTH_UNIT()
NAMED_UNIT(*)
SI_UNIT($,.METRE.)
);
#323=(
NAMED_UNIT(*)
PLANE_ANGLE_UNIT()
SI_UNIT($,.RADIAN.)
);
#324=(
NAMED_UNIT(*)
SI_UNIT($,.STERADIAN.)
SOLID_ANGLE_UNIT()
);
#325=SHAPE_DEFINITION_REPRESENTATION(#326,#327);
#326=PRODUCT_DEFINITION_SHAPE('',$,#329);
#327=SHAPE_REPRESENTATION('',(#193),#319);
#328=PRODUCT_DEFINITION_CONTEXT('part definition',#333,'design');
#329=PRODUCT_DEFINITION('2026-04-12-10-55-31-456','center piece 10mm',#330,
#328);
#330=PRODUCT_DEFINITION_FORMATION('',$,#335);
#331=PRODUCT_RELATED_PRODUCT_CATEGORY('center piece 10mm',
'center piece 10mm',(#335));
#332=APPLICATION_PROTOCOL_DEFINITION('international standard',
'automotive_design',2009,#333);
#333=APPLICATION_CONTEXT(
'Core Data for Automotive Mechanical Design Process');
#334=PRODUCT_CONTEXT('part definition',#333,'mechanical');
#335=PRODUCT('2026-04-12-10-55-31-456','center piece 10mm',$,(#334));
#336=PRESENTATION_STYLE_ASSIGNMENT((#337));
#337=SURFACE_STYLE_USAGE(.BOTH.,#338);
#338=SURFACE_SIDE_STYLE('',(#339));
#339=SURFACE_STYLE_FILL_AREA(#340);
#340=FILL_AREA_STYLE('Steel - Satin',(#341));
#341=FILL_AREA_STYLE_COLOUR('Steel - Satin',#342);
#342=COLOUR_RGB('Steel - Satin',0.627450980392157,0.627450980392157,0.627450980392157);
ENDSEC;
END-ISO-10303-21;
